<?xml version="1.0" encoding="UTF-8"?>
<svg height="16px" viewBox="0 0 16 16" width="16px" xmlns="http://www.w3.org/2000/svg">
    <g fill="#363636">
        <path d="m 13.113281 9.132812 l -1.140625 0.003907 h -11.410156 v 4.390625 c 0 1.351562 1.089844 2.441406 2.441406 2.441406 h 6.535156 c 1.023438 0 1.890626 -0.628906 2.253907 -1.511719 c 0.402343 0.222657 0.859375 0.34375 1.320312 0.351563 c 1.574219 0 2.847657 -1.277344 2.847657 -2.847656 c 0 -1.570313 -1.273438 -2.828126 -2.847657 -2.828126 z m -11.410156 1.144532 h 9.105469 v 3.414062 c 0 0.632813 -0.507813 1.140625 -1.136719 1.140625 h -6.832031 c -0.628906 0 -1.136719 -0.507812 -1.136719 -1.140625 z m 11.410156 0.015625 c 0.921875 0 1.667969 0.75 1.667969 1.667969 c 0 0.921874 -0.75 1.667968 -1.667969 1.667968 c -0.433593 -0.023437 -0.839843 -0.207031 -1.140625 -0.523437 v -2.285157 c 0.300782 -0.316406 0.707032 -0.503906 1.140625 -0.527343 z m 0 0"/>
        <path d="m 5.117188 0.03125 v 0.570312 c 0 0.933594 0.769531 1.707032 1.707031 1.707032 h 3.417969 c 0.320312 0 0.566406 0.242187 0.566406 0.570312 c 0 0.320313 -0.246094 0.566406 -0.566406 0.566406 h -7.96875 c -0.941407 0 -1.710938 0.769532 -1.710938 1.707032 c 0 0.933594 0.769531 1.710937 1.710938 1.710937 h 4.550781 c 0.320312 0 0.570312 0.242188 0.570312 0.566407 v 0.570312 h 1.136719 v -0.570312 c 0 -0.9375 -0.773438 -1.707032 -1.707031 -1.707032 h -4.550781 c -0.328126 0 -0.570313 -0.25 -0.570313 -0.570312 c 0 -0.324219 0.242187 -0.566406 0.570313 -0.566406 h 7.96875 c 0.933593 0 1.707031 -0.773438 1.707031 -1.707032 c 0 -0.941406 -0.773438 -1.710937 -1.707031 -1.710937 h -3.417969 c -0.324219 0 -0.566407 -0.246094 -0.566407 -0.566407 v -0.570312 z m 0 0"/>
    </g>
</svg>
