<?xml version="1.0" encoding="UTF-8"?>
<svg height="128px" viewBox="0 0 128 128" width="128px" xmlns="http://www.w3.org/2000/svg">
    <path d="m 36.800781 31.941406 c 0.570313 0.023438 1.144531 0.03125 1.714844 0.039063 c 0.730469 0.011719 1.460937 0.027343 2.191406 0.042969 c 1.746094 0.042968 3.492188 0.058593 5.242188 0.050781 h 0.375 c 0.636719 -0.003907 1.273437 -0.007813 1.910156 -0.011719 c 1.191406 -0.003906 2.382813 -0.007812 3.574219 -0.007812 c 0.410156 0 0.820312 -0.003907 1.230468 -0.003907 c 3.683594 -0.007812 7.363282 -0.003906 11.042969 -0.003906 h 2.304688 h 0.464843 c 2.496094 0 4.996094 -0.007813 7.496094 -0.011719 c 2.585938 -0.007812 5.175782 -0.011718 7.761719 -0.007812 c 1.585937 0.003906 3.171875 0 4.757813 -0.007813 c 1.082031 -0.003906 2.160156 -0.003906 3.242187 0 c 0.621094 0.003907 1.242187 0.003907 1.867187 -0.003906 c 4.308594 -0.042969 4.308594 -0.042969 5.410157 0.980469 c 0.238281 0.273437 0.46875 0.550781 0.699219 0.835937 c 0.285156 0.242188 0.582031 0.453125 0.886718 0.667969 c 0.753906 0.554688 1.46875 1.144531 2.183594 1.746094 c 0.519531 0.429687 1.050781 0.835937 1.585938 1.242187 c 0.914062 0.699219 1.792968 1.4375 2.679687 2.167969 c 0.824219 0.683594 1.660156 1.351562 2.503906 2.011719 c 0.171875 0.132812 0.339844 0.265625 0.511719 0.398437 c 0.128906 0.101563 0.128906 0.101563 0.257812 0.203125 c 0.671876 0.527344 1.332032 1.0625 1.992188 1.601563 c 0.769531 0.625 1.535156 1.246094 2.308594 1.859375 c 0.085937 0.066406 0.167968 0.132812 0.253906 0.203125 c 0.46875 0.367187 0.46875 0.367187 0.996094 0.628906 c 0.425781 0.28125 0.433594 0.710938 0.546875 1.191406 c 0.035156 0.484375 0.035156 0.484375 0.035156 0.992188 v 0.582031 c -0.003906 0.207031 -0.003906 0.417969 -0.007813 0.625 c 0 0.21875 -0.003906 0.4375 -0.003906 0.65625 c -0.003906 0.585937 -0.011718 1.171875 -0.019531 1.757813 c -0.003906 0.378906 -0.007813 0.757812 -0.011719 1.136718 c -0.007812 0.640625 -0.019531 1.28125 -0.03125 1.921875 c -0.003906 0.246094 -0.007812 0.492188 -0.011718 0.738281 c -0.042969 2.980469 -0.683594 5.429688 -2.878907 7.566407 c -0.101562 0.105469 -0.203125 0.207031 -0.308593 0.3125 c -1.976563 1.921875 -4.582032 2.5625 -7.253907 2.53125 c -2.445312 -0.070313 -4.347656 -0.832031 -6.214843 -2.402344 c -0.121094 -0.09375 -0.242188 -0.183594 -0.363282 -0.273437 c -1.503906 -1.273438 -2.371094 -3.101563 -2.714844 -5.003907 c -0.242187 -0.050781 -0.484374 -0.097656 -0.734374 -0.148437 c -0.019532 0.109375 -0.042969 0.214844 -0.066407 0.324218 c -0.421875 1.898438 -1.191406 3.296876 -2.570312 4.660157 c -0.101563 0.105469 -0.203125 0.207031 -0.308594 0.316406 c -1.980469 1.917969 -4.640625 2.5625 -7.324219 2.527344 c -2.859375 -0.089844 -5.152344 -1.34375 -7.125 -3.375 c -1.105468 -1.273438 -1.746094 -2.8125 -2.097656 -4.453125 c -0.289062 0 -0.582031 0 -0.878906 0 c -0.011719 0.183594 -0.019532 0.363281 -0.027344 0.550781 c -0.238281 2.050781 -1.523438 3.832031 -3.058594 5.148437 c -0.863281 0.621094 -1.804687 1.0625 -2.777344 1.484376 c -0.148437 0.066406 -0.296874 0.132812 -0.449218 0.203124 c -2.152344 0.816407 -5.058594 0.660157 -7.171875 -0.203124 c -2.648438 -1.222657 -4.410157 -3.140626 -5.546875 -5.820313 c -0.160156 -0.457031 -0.253906 -0.882813 -0.316406 -1.363281 c -0.242188 0.050781 -0.484376 0.097656 -0.734376 0.148437 c -0.019531 0.09375 -0.039062 0.183594 -0.058593 0.28125 c -0.589844 2.457031 -1.828125 4.429688 -3.96875 5.792969 c -2.644531 1.503906 -5.445313 2.050781 -8.449219 1.308594 c -2.628906 -0.828125 -4.722656 -2.417969 -6.097656 -4.820313 c -0.277344 -0.546875 -0.460938 -1.097656 -0.625 -1.683593 c -0.027344 -0.101563 -0.058594 -0.207032 -0.089844 -0.3125 c -0.070312 -0.234376 -0.136719 -0.476563 -0.203125 -0.714844 c -0.242187 0.050781 -0.484375 0.097656 -0.730469 0.148437 c -0.023437 0.105469 -0.042968 0.210938 -0.066406 0.320313 c -0.523438 2.339844 -1.695312 4.367187 -3.738281 5.679687 c -2.597657 1.589844 -5.441407 2.121094 -8.46875 1.503907 c -2.636719 -0.683594 -4.796875 -2.414063 -6.195313 -4.71875 c -1.496094 -2.648438 -1.40625 -5.539063 -1.375 -8.480469 c 0 -0.421875 0 -0.84375 0 -1.265625 c 0 -0.414063 0.003906 -0.824219 0.003906 -1.234375 c 0.003907 -0.289063 0.003907 -0.578125 0.003907 -0.863281 c 0.023437 -2.414063 0.023437 -2.414063 0.640625 -3.191407 c 0.117187 -0.09375 0.238281 -0.191406 0.359375 -0.292969 c 0.199219 -0.164062 0.199219 -0.164062 0.402343 -0.332031 c 0.132813 -0.105469 0.265626 -0.207031 0.40625 -0.316406 c 0.167969 -0.136719 0.167969 -0.136719 0.339844 -0.277344 c 0.230469 -0.1875 0.464844 -0.375 0.699219 -0.558593 c 0.425781 -0.339844 0.847656 -0.679688 1.265625 -1.023438 c 0.808594 -0.660156 1.617188 -1.3125 2.449219 -1.941406 c 0.855469 -0.65625 1.6875 -1.335938 2.519531 -2.027344 c 0.730469 -0.601562 1.46875 -1.195312 2.214844 -1.777344 c 0.65625 -0.511718 1.300781 -1.03125 1.941406 -1.554687 c 1.675781 -1.367188 1.675781 -1.367188 2.4375 -1.9375 c 0.457031 -0.347657 0.859375 -0.695313 1.238281 -1.117188 c 1.742188 -1.835937 3.777344 -1.636719 6.125 -1.546875 z m 0 0" fill="#f25f1e"/>
    <path d="m 94.566406 64.023438 c 0.425782 0.414062 0.824219 0.835937 1.210938 1.292968 c 1.019531 1.164063 2.089844 1.980469 3.480468 2.664063 c 0.101563 0.054687 0.207032 0.113281 0.3125 0.167969 c 1.824219 0.921874 3.988282 0.96875 5.988282 0.859374 c 0.21875 -0.074218 0.21875 -0.074218 0.441406 -0.148437 h 1.023438 v 40.597656 c -2.078126 0 -4.15625 0 -6.300782 0 c 0 -1.019531 -0.003906 -2.042969 -0.003906 -3.097656 c -0.003906 -3.269531 -0.011719 -6.539063 -0.023438 -9.808594 c 0 -0.507812 0 -1.015625 -0.003906 -1.523437 c 0 -0.101563 0 -0.203125 0 -0.308594 c -0.003906 -1.636719 -0.007812 -3.273438 -0.007812 -4.914062 c -0.003906 -1.679688 -0.007813 -3.359376 -0.011719 -5.039063 c -0.003906 -0.945313 -0.007813 -1.886719 -0.007813 -2.832031 c 0 -0.886719 0 -1.773438 -0.007812 -2.664063 c 0 -0.324219 0 -0.652343 0 -0.976562 c 0.003906 -0.445313 0 -0.890625 -0.003906 -1.335938 c 0 -0.128906 0.003906 -0.257812 0.003906 -0.394531 c -0.007812 -0.714844 -0.007812 -0.714844 -0.351562 -1.328125 c -0.570313 -0.394531 -1.050782 -0.382813 -1.726563 -0.386719 c -0.097656 0 -0.199219 -0.003906 -0.300781 -0.003906 c -0.332032 0 -0.664063 0 -1 -0.003906 c -0.238282 0 -0.476563 0 -0.714844 -0.003906 c -0.785156 -0.003907 -1.566406 -0.003907 -2.351562 -0.007813 c -0.269532 0 -0.539063 0 -0.808594 0 c -1.121094 -0.003906 -2.246094 -0.007813 -3.367188 -0.007813 c -1.609375 -0.003906 -3.21875 -0.007812 -4.824218 -0.015624 c -1.132813 -0.007813 -2.261719 -0.007813 -3.394532 -0.011719 c -0.675781 0 -1.351562 0 -2.027344 -0.003907 c -0.632812 -0.007812 -1.269531 -0.007812 -1.90625 -0.003906 c -0.230468 0 -0.464843 -0.003906 -0.699218 -0.003906 c -0.316406 -0.003906 -0.636719 -0.003906 -0.953125 0 c -0.179688 0 -0.359375 -0.003906 -0.542969 -0.003906 c -0.628906 0.125 -0.835938 0.296875 -1.199219 0.824218 c -0.105469 0.460938 -0.101562 0.90625 -0.09375 1.375 c -0.003906 0.136719 -0.003906 0.277344 -0.003906 0.417969 c -0.003906 0.46875 0 0.933594 0 1.398438 c 0 0.339843 -0.003906 0.679687 -0.003906 1.015625 c -0.003907 0.910156 -0.003907 1.820312 -0.003907 2.726562 c 0 0.855469 -0.003906 1.707032 -0.003906 2.558594 c -0.007812 2.496094 -0.007812 4.988281 -0.011718 7.484375 c -0.007813 5.570313 -0.015626 11.140625 -0.027344 16.878906 c -17.363282 0 -34.726563 0 -52.617188 0 c 0 -13.394531 0 -26.792969 0 -40.597656 c 0.484375 0.050781 0.96875 0.097656 1.46875 0.148437 c 3.359375 0.148438 6.503906 -0.574218 9.058594 -2.863281 c 0.628906 -0.609375 1.199219 -1.214843 1.640625 -1.972656 c 0.496094 0.164063 0.542969 0.25 0.824219 0.667969 c 1.640625 2.25 4.289062 3.546875 6.988281 3.992187 c 3.453125 0.507813 6.902344 -0.054687 9.835937 -2.035156 c 1.027344 -0.769531 1.855469 -1.570313 2.574219 -2.625 h 0.292969 c 0.203125 0.242187 0.203125 0.242187 0.441406 0.574219 c 1.742188 2.285156 4.34375 3.695312 7.164063 4.160156 c 3.683593 0.425781 7.3125 -0.199219 10.277343 -2.539062 c 0.574219 -0.5 1.09375 -1.050782 1.613282 -1.609376 c 0.195312 -0.199218 0.386718 -0.394531 0.585937 -0.585937 c 0.113281 0.132813 0.230469 0.265625 0.347657 0.402344 c 2.359374 2.660156 5.285156 4.265625 8.875 4.488281 c 3.246093 0.117188 6.511718 -0.726562 8.988281 -2.90625 c 0.703125 -0.65625 1.332031 -1.332031 1.867187 -2.132812 z m 0 0" fill="#fde0a4"/>
    <path d="m 114.644531 52.738281 h 0.148438 c 0.011719 1.046875 0.019531 2.09375 0.023437 3.144531 c 0.003906 0.355469 0.003906 0.710938 0.007813 1.066407 c 0.039062 3.378906 -0.15625 6.265625 -2.632813 8.804687 c -0.109375 0.105469 -0.21875 0.210938 -0.328125 0.320313 c -0.148437 0.152343 -0.148437 0.152343 -0.296875 0.308593 c -1.207031 1.1875 -2.785156 1.871094 -4.394531 2.332032 v 40.742187 h 5.128906 c 1.171875 0.589844 1.171875 0.589844 1.613281 1.027344 c -0.011718 0.488281 -0.109374 0.691406 -0.429687 1.0625 c -0.445313 0.378906 -0.6875 0.421875 -1.257813 0.421875 c -0.136718 0 -0.277343 0 -0.421874 0.003906 c -0.234376 -0.003906 -0.234376 -0.003906 -0.472657 -0.003906 c -0.164062 0 -0.328125 0.003906 -0.496093 0.003906 c -0.558594 0 -1.117188 0 -1.671876 0 c -0.402343 0 -0.804687 0 -1.203124 0 c -0.992188 0.003906 -1.984376 0.003906 -2.976563 0.003906 c -1.183594 0 -2.371094 0 -3.558594 0.003907 c -2.867187 0 -5.734375 0.003906 -8.605469 0.003906 c -1.355468 0 -2.710937 0 -4.066406 0.003906 c -4.640625 0 -9.28125 0.003907 -13.917968 0.003907 c -0.292969 0 -0.582032 0 -0.875 0 c -0.144532 0 -0.289063 0 -0.4375 0 c -0.734376 0 -1.464844 0 -2.195313 0 c -0.148437 0 -0.292969 0 -0.441406 0 c -4.714844 0.003906 -9.425781 0.007812 -14.140625 0.011718 c -4.980469 0.003906 -9.957032 0.007813 -14.9375 0.007813 c -0.546875 0 -1.09375 0 -1.640625 0 c -0.199219 0 -0.199219 0 -0.40625 0 c -2.167969 0 -4.335938 0.003906 -6.503907 0.003906 c -2.179687 0.003906 -4.355468 0.003906 -6.535156 0.003906 c -1.292968 0 -2.589844 0 -3.882812 0.003907 c -0.863282 0 -1.730469 0 -2.59375 0 c -0.492188 0 -0.984375 0 -1.476563 0 c -0.53125 0.003906 -1.0625 0 -1.59375 0 c -0.230469 0 -0.230469 0 -0.464843 0.003906 c -0.644532 -0.007813 -1.035157 -0.015625 -1.601563 -0.34375 c -0.273437 -0.320313 -0.273437 -0.320313 -0.394531 -0.824219 c 0.136718 -0.585937 0.191406 -0.632813 0.671875 -0.941406 c 1.875 -1.050781 4.070312 -0.460938 6.191406 -0.460938 c 0 -12.476562 0 -24.957031 0 -37.8125 h 0.144531 v 37.8125 h 52.617188 c -0.027344 -11.109375 -0.027344 -11.109375 -0.066406 -22.214843 c 0 -2.148438 0 -2.148438 -0.003907 -3.152344 c 0 -0.703125 -0.003906 -1.40625 -0.007812 -2.109375 c -0.003907 -0.894531 -0.003907 -1.789063 -0.003907 -2.6875 c 0 -0.328125 0 -0.65625 -0.003906 -0.984375 c -0.003906 -0.445313 -0.003906 -0.890625 0 -1.332032 c -0.003906 -0.128906 -0.003906 -0.261718 -0.007812 -0.394531 c 0.007812 -0.652343 0.027344 -0.898437 0.457031 -1.421875 c 0.183594 -0.144531 0.183594 -0.144531 0.371094 -0.289062 c 0.046875 -0.050782 0.097656 -0.097656 0.144531 -0.148438 c 0.3125 -0.015625 0.625 -0.019531 0.9375 -0.019531 c 0.148438 0 0.148438 0 0.300781 -0.003906 h 1 c 0.242188 0 0.480469 0 0.71875 -0.003907 h 1.949219 c 0.40625 -0.003906 0.808594 -0.003906 1.214844 -0.003906 c 1.269531 0 2.539062 -0.003906 3.808594 -0.003906 c 1.464843 0 2.929687 -0.003906 4.398437 -0.007812 c 1.128906 -0.003907 2.261719 -0.003907 3.394531 -0.003907 c 0.675782 0 1.351563 0 2.03125 -0.003906 c 0.636719 -0.003906 1.273438 -0.003906 1.910156 0 c 0.230469 0 0.464844 -0.003906 0.699219 -0.003906 h 0.957031 h 0.542969 c 0.699219 0.082031 1.191407 0.398437 1.640625 0.933593 c 0.042969 0.457032 0.058594 0.882813 0.054688 1.339844 v 0.417969 c 0 0.46875 -0.003906 0.933594 -0.003906 1.402344 v 1 c 0 0.90625 -0.003907 1.8125 -0.007813 2.722656 v 2.84375 c -0.003906 1.589844 -0.007813 3.179687 -0.011719 4.773437 c -0.003906 1.636719 -0.003906 3.277344 -0.007812 4.917969 v 0.304688 v 1.519531 c -0.003906 4.207031 -0.015625 8.410156 -0.023438 12.613281 h 6.300782 c 0 -13.394531 0 -26.792969 0 -40.597656 c -0.480469 0.097656 -0.964844 0.195313 -1.464844 0.292969 c -3.136719 0.25 -6.160156 -0.402344 -8.601563 -2.476563 c -0.84375 -0.769531 -1.660156 -1.515625 -2.242187 -2.503906 c -0.082032 0.101563 -0.160156 0.203125 -0.242188 0.3125 c -1.066406 1.296875 -2.230468 2.402344 -3.714844 3.203125 c -0.125 0.066406 -0.25 0.132812 -0.378906 0.203125 c -3.128906 1.550781 -6.808594 1.664063 -10.109375 0.652344 c -2.402343 -0.816407 -4.148437 -2.328125 -5.78125 -4.226563 c -0.371093 0.367188 -0.734375 0.734375 -1.089843 1.117188 c -2.378907 2.503906 -5.5 3.671875 -8.914063 3.765625 c -3.546875 0.019531 -6.519531 -1.132813 -9.078125 -3.582031 c -0.363281 -0.363282 -0.699219 -0.734376 -1 -1.152344 c 0 -0.097656 0 -0.195313 0 -0.292969 c -0.09375 0 -0.191406 0 -0.292969 0 c -0.035156 0.082031 -0.070312 0.164063 -0.109375 0.25 c -1.132812 2.09375 -3.554687 3.402344 -5.75 4.089844 c -3.308594 0.976562 -7.003906 0.972656 -10.113281 -0.675781 c -1.40625 -0.796876 -2.910156 -1.769532 -3.753906 -3.183594 c -0.175781 -0.351563 -0.175781 -0.351563 -0.496094 -0.480469 c -0.039063 0.082031 -0.078125 0.167969 -0.121094 0.257813 c -1.144531 2.148437 -3.585937 3.542968 -5.808593 4.285156 c -1.992188 0.558594 -4.226563 0.707031 -6.238282 0.144531 c -0.136718 -0.035156 -0.273437 -0.074219 -0.417968 -0.113281 c -2.597657 -0.78125 -4.808594 -2.453125 -6.148438 -4.824219 c -0.109375 -0.210937 -0.214844 -0.417969 -0.320312 -0.632813 c -0.082032 -0.144531 -0.082032 -0.144531 -0.164063 -0.292968 c -0.792969 -1.46875 -0.75 -2.917969 -0.714844 -4.542969 c 0.246094 0.460937 0.40625 0.921875 0.558594 1.421875 c 0.800781 2.417969 2.441406 4.296875 4.664063 5.519531 c 1.617187 0.792969 2.996093 1.039063 4.789062 1.046875 c 0.238281 0 0.238281 0 0.480469 0.003906 c 1.523437 -0.023437 2.84375 -0.375 4.191406 -1.074218 c 0.101563 -0.054688 0.199219 -0.105469 0.304687 -0.15625 c 2.082032 -1.097656 3.320313 -2.679688 4.210938 -4.855469 c 0.105469 -0.398437 0.183594 -0.78125 0.238281 -1.1875 c 0.054688 -0.277344 0.054688 -0.277344 0.347657 -0.570313 c 0.386718 0.054688 0.386718 0.054688 0.734374 0.144532 c 0.046876 0.195312 0.046876 0.195312 0.097657 0.394531 c 0.75 2.554687 2 4.617187 4.371093 5.953125 c 2.554688 1.300781 5.453126 1.789062 8.269532 1.007812 c 2.5 -0.949218 4.609375 -2.5 5.792968 -4.953124 c 0.320313 -0.746094 0.511719 -1.460938 0.667969 -2.253907 c 0.097657 -0.097656 0.191407 -0.195312 0.292969 -0.292969 c 0.382812 0.054688 0.382812 0.054688 0.734375 0.144532 c 0.027344 0.152344 0.058594 0.304687 0.089844 0.460937 c 0.644531 2.535157 2.074219 4.488281 4.296875 5.882813 c 2.304687 1.363281 5.1875 1.773437 7.800781 1.113281 c 0.644531 -0.195313 1.265625 -0.4375 1.882813 -0.714844 c 0.152343 -0.066406 0.308593 -0.136719 0.46875 -0.207031 c 2.1875 -1.089844 3.585937 -2.933594 4.367187 -5.214844 c 0.117187 -0.441406 0.210937 -0.871094 0.292969 -1.320312 c 0.289062 -0.046875 0.578125 -0.09375 0.878906 -0.144532 c 0.058594 0.152344 0.113281 0.308594 0.171875 0.464844 c 0.042969 0.109375 0.082031 0.214844 0.125 0.324219 c 0.101563 0.273437 0.199219 0.550781 0.292969 0.828125 c 0.890625 2.515625 2.605468 4.238281 4.980468 5.417969 c 2.460938 1.054687 5.40625 1.101562 7.914063 0.144531 c 1.375 -0.5625 2.476563 -1.273438 3.515625 -2.34375 c 0.09375 -0.09375 0.191406 -0.1875 0.289062 -0.28125 c 1.175782 -1.238281 1.722657 -2.761719 2.058594 -4.410156 c 0.347656 -0.089844 0.347656 -0.089844 0.730469 -0.144532 c 0.292969 0.292969 0.292969 0.292969 0.394531 0.84375 c 0.507813 2.441407 2.144532 4.25 4.148438 5.605469 c 2.277344 1.410157 5.121094 1.726563 7.734375 1.195313 c 2.589843 -0.644532 4.792969 -2.144532 6.191406 -4.429688 c 0.824219 -1.539062 1.183594 -2.964844 1.21875 -4.699218 c 0.003906 -0.125 0.003906 -0.25 0.007813 -0.378907 c 0.011718 -0.398437 0.019531 -0.796875 0.027343 -1.195312 c 0.007813 -0.273438 0.011719 -0.542969 0.019531 -0.816407 c 0.015626 -0.664062 0.03125 -1.324218 0.042969 -1.988281 z m 0 0" fill="#6c2f11"/>
    <path d="m 13.957031 50.101562 h 100.835938 c 0 1.726563 0 3.453126 -0.039063 5.179688 c -0.003906 0.25 -0.007812 0.496094 -0.011718 0.742188 c -0.039063 2.8125 -0.507813 5.289062 -2.542969 7.378906 c -0.113281 0.109375 -0.222657 0.214844 -0.335938 0.328125 c -0.101562 0.105469 -0.203125 0.207031 -0.308593 0.3125 c -1.976563 1.921875 -4.582032 2.5625 -7.253907 2.53125 c -2.445312 -0.070313 -4.347656 -0.832031 -6.214843 -2.402344 c -0.121094 -0.09375 -0.242188 -0.183594 -0.363282 -0.273437 c -1.503906 -1.273438 -2.371094 -3.101563 -2.714844 -5.003907 c -0.363281 -0.074219 -0.363281 -0.074219 -0.734374 -0.148437 c -0.019532 0.109375 -0.042969 0.214844 -0.066407 0.324218 c -0.421875 1.898438 -1.191406 3.296876 -2.570312 4.660157 c -0.101563 0.105469 -0.203125 0.207031 -0.308594 0.316406 c -1.980469 1.921875 -4.640625 2.5625 -7.324219 2.527344 c -2.859375 -0.089844 -5.152344 -1.34375 -7.125 -3.375 c -1.105468 -1.273438 -1.746094 -2.8125 -2.097656 -4.453125 c -0.289062 0 -0.582031 0 -0.878906 0 c -0.011719 0.183594 -0.019532 0.363281 -0.027344 0.550781 c -0.238281 2.050781 -1.523438 3.832031 -3.058594 5.148437 c -0.863281 0.621094 -1.804687 1.0625 -2.777344 1.484376 c -0.148437 0.066406 -0.296874 0.132812 -0.449218 0.203124 c -2.152344 0.816407 -5.058594 0.660157 -7.171875 -0.203124 c -2.648438 -1.222657 -4.410157 -3.140626 -5.546875 -5.820313 c -0.160156 -0.457031 -0.253906 -0.882813 -0.316406 -1.363281 c -0.242188 0.050781 -0.484376 0.097656 -0.734376 0.148437 c -0.019531 0.09375 -0.039062 0.183594 -0.058593 0.28125 c -0.589844 2.457031 -1.828125 4.429688 -3.96875 5.792969 c -2.644531 1.503906 -5.445313 2.050781 -8.449219 1.308594 c -2.628906 -0.828125 -4.722656 -2.417969 -6.097656 -4.820313 c -0.277344 -0.546875 -0.460938 -1.097656 -0.625 -1.683593 c -0.027344 -0.101563 -0.058594 -0.203126 -0.089844 -0.308594 c -0.070312 -0.238282 -0.136719 -0.480469 -0.203125 -0.71875 c -0.363281 0.074218 -0.363281 0.074218 -0.730469 0.148437 c -0.023437 0.105469 -0.042968 0.210938 -0.066406 0.320313 c -0.523438 2.339844 -1.695312 4.367187 -3.738281 5.679687 c -2.597657 1.589844 -5.441407 2.121094 -8.46875 1.503907 c -2.628907 -0.683594 -4.808594 -2.410157 -6.195313 -4.71875 c -1.964844 -3.679688 -1.171875 -7.175782 -1.171875 -11.578126 z m 0 0" fill="#e55115"/>
    <path d="m 30.957031 77.066406 c 8.558594 -0.003906 8.558594 -0.003906 12.132813 -0.003906 c 0.816406 -0.003906 1.632812 -0.003906 2.449218 -0.003906 h 0.3125 c 1.652344 0 3.308594 0 4.964844 -0.003906 h 5.089844 c 0.953125 0 1.90625 0 2.859375 -0.003907 h 2.691406 h 0.992188 h 1.34375 h 0.402343 c 0.894532 0 0.894532 0 1.058594 0.164063 c 0.015625 0.285156 0.019532 0.566406 0.019532 0.851562 v 0.558594 c 0 0.210938 -0.003907 0.417969 -0.003907 0.625 v 0.660156 v 1.773438 v 1.664062 c -0.003906 1.621094 -0.003906 3.246094 -0.007812 4.867188 c 0 3.625 -0.003907 7.25 -0.007813 10.984375 c -11.316406 0 -22.636718 0 -34.296875 0 c 0 -7.304688 0 -14.605469 0 -22.132813 z m 0 0" fill="#36cbe8"/>
    <path d="m 38.691406 11.242188 c 0.273438 0 0.273438 0 0.558594 -0.003907 c 0.207031 0 0.414062 0.003907 0.621094 0.003907 c 0.21875 0 0.4375 -0.003907 0.652344 -0.003907 h 1.808593 h 1.945313 c 1.273437 -0.003906 2.542968 -0.003906 3.816406 -0.003906 h 3.097656 h 8.777344 h 0.476562 h 0.480469 c 2.5625 0 5.125 -0.003906 7.6875 -0.003906 c 2.628907 -0.003907 5.257813 -0.003907 7.886719 -0.003907 h 4.429688 c 1.257812 -0.003906 2.515624 -0.003906 3.773437 -0.003906 h 1.925781 h 1.761719 h 0.640625 h 0.863281 h 0.484375 c 0.378906 0.039063 0.378906 0.039063 0.671875 0.332032 c 0.027344 0.425781 0.039063 0.839843 0.035157 1.265624 c 0.003906 0.195313 0.003906 0.195313 0.003906 0.398438 v 1.300781 v 0.90625 c 0 0.632813 0 1.261719 -0.003906 1.894531 c 0 0.8125 0 1.621094 0.003906 2.433594 v 1.867188 v 0.898437 c 0 0.417969 0 0.832031 -0.003906 1.25 c 0.003906 0.125 0.003906 0.25 0.003906 0.378907 c -0.007813 0.855468 -0.007813 0.855468 -0.332032 1.183593 c -0.375 0.035157 -0.375 0.035157 -0.859374 0.035157 c -0.1875 0 -0.371094 0 -0.558594 0.003906 c -0.207032 -0.003906 -0.414063 -0.003906 -0.621094 -0.003906 c -0.214844 0 -0.433594 0 -0.652344 0 c -0.601562 0.003906 -1.199218 0.003906 -1.800781 0 c -0.644531 0 -1.292969 0.003906 -1.941406 0.003906 c -1.265625 0 -2.535157 0 -3.800781 0 c -1.03125 0 -2.058594 0 -3.089844 0 c -0.21875 0 -0.21875 0 -0.441406 0 c -0.300782 0 -0.597657 0 -0.894532 0 c -2.789062 0 -5.578125 0 -8.367187 -0.003906 c -2.398438 0 -4.792969 0 -7.1875 0 c -2.78125 0.003906 -5.558594 0.003906 -8.339844 0.003906 c -0.296875 0 -0.589844 0 -0.886719 0 c -0.148437 0 -0.292968 0 -0.441406 0 c -1.03125 0 -2.058594 0 -3.089844 0 c -1.253906 0 -2.503906 0 -3.757812 0 c -0.640625 -0.003906 -1.28125 -0.003906 -1.921875 0 c -0.585938 0 -1.167969 0 -1.753907 -0.003906 c -0.210937 0 -0.425781 0 -0.636718 0 c -0.289063 0.003906 -0.574219 0 -0.863282 0 c -0.238281 0 -0.238281 0 -0.484374 0 c -0.375 -0.035157 -0.375 -0.035157 -0.667969 -0.328126 c -0.027344 -0.433593 -0.039063 -0.851562 -0.035157 -1.285156 c 0 -0.132812 0 -0.265625 0 -0.402344 c 0 -0.4375 0 -0.878906 0 -1.320312 c 0.003907 -0.304688 0.003907 -0.609375 0.003907 -0.914062 c 0 -0.640626 0 -1.277344 0 -1.917969 c 0.003906 -0.820313 0.003906 -1.644531 0.003906 -2.464844 c 0 -0.628906 0 -1.257813 0.003906 -1.886719 c 0 -0.304687 0 -0.605468 0 -0.910156 c 0 -0.421875 0 -0.84375 0.003907 -1.265625 c 0 -0.128906 0 -0.253906 0 -0.386719 c 0.003906 -1 0.019531 -1.042968 1.011718 -1.042968 z m 0 0" fill="#fbdda1"/>
    <path d="m 114.644531 52.738281 h 0.148438 c 0.011719 1.046875 0.019531 2.09375 0.023437 3.144531 c 0.003906 0.355469 0.003906 0.710938 0.007813 1.066407 c 0.039062 3.378906 -0.15625 6.265625 -2.632813 8.804687 c -0.109375 0.105469 -0.21875 0.210938 -0.328125 0.320313 c -0.148437 0.152343 -0.148437 0.152343 -0.296875 0.308593 c -1.207031 1.1875 -2.785156 1.871094 -4.394531 2.332032 v 40.742187 h 5.128906 c 1.171875 0.589844 1.171875 0.589844 1.613281 1.027344 c -0.011718 0.488281 -0.109374 0.691406 -0.429687 1.0625 c -0.445313 0.378906 -0.6875 0.421875 -1.257813 0.421875 c -0.136718 0 -0.277343 0 -0.421874 0.003906 c -0.234376 -0.003906 -0.234376 -0.003906 -0.472657 -0.003906 c -0.164062 0 -0.328125 0.003906 -0.496093 0.003906 c -0.558594 0 -1.117188 0 -1.671876 0 c -0.402343 0 -0.804687 0 -1.203124 0 c -0.992188 0.003906 -1.984376 0.003906 -2.976563 0.003906 c -1.183594 0 -2.371094 0 -3.558594 0.003907 c -2.867187 0 -5.734375 0.003906 -8.605469 0.003906 l -4.066406 0.003906 c -4.640625 0 -9.28125 0.003907 -13.917968 0.003907 c -0.292969 0 -0.582032 0 -0.875 0 c -0.144532 0 -0.289063 0 -0.4375 0 h -2.195313 c -0.148437 0 -0.292969 0 -0.441406 0 c -4.714844 0.003906 -9.425781 0.007812 -14.140625 0.011718 c -4.980469 0.003906 -9.957032 0.007813 -14.9375 0.007813 c -0.546875 0 -1.09375 0 -1.640625 0 c -0.199219 0 -0.199219 0 -0.40625 0 c -2.167969 0 -4.335938 0.003906 -6.503907 0.003906 c -2.179687 0.003906 -4.355468 0.003906 -6.535156 0.003906 c -1.292968 0 -2.589844 0 -3.882812 0.003907 c -0.863282 0 -1.730469 0 -2.59375 0 c -0.492188 0 -0.984375 0 -1.476563 0 c -0.53125 0.003906 -1.0625 0 -1.59375 0 c -0.230469 0 -0.230469 0 -0.464843 0.003906 c -0.644532 -0.007813 -1.035157 -0.015625 -1.601563 -0.34375 c -0.273437 -0.320313 -0.273437 -0.320313 -0.394531 -0.824219 c 0.136718 -0.585937 0.191406 -0.632813 0.671875 -0.941406 c 1.875 -1.050781 4.070312 -0.460938 6.191406 -0.460938 v -37.8125 h 0.144531 v 37.8125 h 52.617188 v -33.855469 h 0.148437 v 34.148438 h 26.085938 v -34.148438 h 0.148437 v 33.855469 h 6.300782 v -40.597656 l -1.464844 0.292969 c -3.136719 0.25 -6.160156 -0.402344 -8.601563 -2.476563 c -0.84375 -0.769531 -1.660156 -1.515625 -2.242187 -2.503906 c -0.082032 0.101563 -0.160156 0.203125 -0.242188 0.3125 c -1.066406 1.296875 -2.230468 2.402344 -3.714844 3.203125 c -0.125 0.066406 -0.25 0.132812 -0.378906 0.203125 c -3.128906 1.550781 -6.808594 1.664063 -10.109375 0.652344 c -2.402343 -0.816407 -4.148437 -2.328125 -5.78125 -4.226563 c -0.371093 0.367188 -0.734375 0.734375 -1.089843 1.117188 c -2.378907 2.503906 -5.5 3.671875 -8.914063 3.765625 c -3.546875 0.019531 -6.519531 -1.132813 -9.078125 -3.582031 c -0.363281 -0.363282 -0.699219 -0.734376 -1 -1.152344 v -0.292969 h -0.292969 c -0.035156 0.082031 -0.070312 0.164063 -0.109375 0.25 c -1.132812 2.09375 -3.554687 3.402344 -5.75 4.089844 c -3.308594 0.976562 -7.003906 0.972656 -10.113281 -0.675781 c -1.40625 -0.796876 -2.910156 -1.769532 -3.753906 -3.183594 c -0.175781 -0.351563 -0.175781 -0.351563 -0.496094 -0.480469 c -0.039063 0.082031 -0.078125 0.167969 -0.121094 0.257813 c -1.144531 2.148437 -3.585937 3.542968 -5.808593 4.285156 c -1.992188 0.558594 -4.226563 0.707031 -6.238282 0.144531 c -0.136718 -0.035156 -0.273437 -0.074219 -0.417968 -0.113281 c -2.597657 -0.78125 -4.808594 -2.453125 -6.148438 -4.824219 c -0.109375 -0.210937 -0.214844 -0.417969 -0.320312 -0.632813 c -0.082032 -0.144531 -0.082032 -0.144531 -0.164063 -0.292968 c -0.792969 -1.46875 -0.75 -2.917969 -0.714844 -4.542969 c 0.246094 0.460937 0.40625 0.921875 0.558594 1.421875 c 0.800781 2.417969 2.441406 4.296875 4.664063 5.519531 c 1.617187 0.792969 2.996093 1.039063 4.789062 1.046875 c 0.238281 0 0.238281 0 0.480469 0.003906 c 1.523437 -0.023437 2.84375 -0.375 4.191406 -1.074218 c 0.101563 -0.054688 0.199219 -0.105469 0.304687 -0.15625 c 2.082032 -1.097656 3.320313 -2.679688 4.210938 -4.855469 c 0.105469 -0.398437 0.183594 -0.78125 0.238281 -1.1875 c 0.054688 -0.277344 0.054688 -0.277344 0.347657 -0.570313 c 0.386718 0.054688 0.386718 0.054688 0.734374 0.144532 c 0.046876 0.195312 0.046876 0.195312 0.097657 0.394531 c 0.75 2.554687 2 4.617187 4.371093 5.953125 c 2.554688 1.300781 5.453126 1.789062 8.269532 1.007812 c 2.5 -0.949218 4.609375 -2.5 5.792968 -4.953124 c 0.320313 -0.746094 0.511719 -1.460938 0.667969 -2.253907 l 0.292969 -0.292969 c 0.382812 0.054688 0.382812 0.054688 0.734375 0.144532 c 0.027344 0.152344 0.058594 0.304687 0.089844 0.460937 c 0.644531 2.535157 2.074219 4.488281 4.296875 5.882813 c 2.304687 1.363281 5.1875 1.773437 7.800781 1.113281 c 0.644531 -0.195313 1.265625 -0.4375 1.882813 -0.714844 c 0.152343 -0.066406 0.308593 -0.136719 0.46875 -0.207031 c 2.1875 -1.089844 3.585937 -2.933594 4.367187 -5.214844 c 0.117187 -0.441406 0.210937 -0.871094 0.292969 -1.320312 l 0.878906 -0.144532 c 0.058594 0.152344 0.113281 0.308594 0.171875 0.464844 c 0.042969 0.109375 0.082031 0.214844 0.125 0.324219 c 0.101563 0.273437 0.199219 0.550781 0.292969 0.828125 c 0.890625 2.515625 2.605468 4.238281 4.980468 5.417969 c 2.460938 1.054687 5.40625 1.101562 7.914063 0.144531 c 1.375 -0.5625 2.476563 -1.273438 3.515625 -2.34375 c 0.09375 -0.09375 0.191406 -0.1875 0.289062 -0.28125 c 1.175782 -1.238281 1.722657 -2.761719 2.058594 -4.410156 c 0.347656 -0.089844 0.347656 -0.089844 0.730469 -0.144532 c 0.292969 0.292969 0.292969 0.292969 0.394531 0.84375 c 0.507813 2.441407 2.144532 4.25 4.148438 5.605469 c 2.277344 1.410157 5.121094 1.726563 7.734375 1.195313 c 2.589843 -0.644532 4.792969 -2.144532 6.191406 -4.429688 c 0.824219 -1.539062 0.980469 -2.980468 1.015625 -4.714844 c 0.003906 -0.125 0.003906 -0.25 0.007812 -0.378906 c 0.011719 -0.398437 0.019532 -0.796875 0.027344 -1.195312 c 0.007813 -0.273438 0.011719 -0.542969 0.019532 -0.816406 c 0.015624 -0.664063 -0.03125 -1.308594 0.246093 -1.972657 z m 0 0" fill="#9d3212"/>
    <path d="m 14.6875 110.632812 h 0.148438 c 0.039062 0.136719 0.078124 0.277344 0.117187 0.417969 c 0.140625 0.496094 0.140625 0.496094 0.617187 0.753907 c 0.316407 0.042968 0.316407 0.042968 0.675782 0.035156 c 0.140625 0 0.28125 0.003906 0.425781 0.003906 c 0.15625 0 0.308594 -0.003906 0.46875 -0.003906 c 0.164063 0 0.328125 0 0.5 0.003906 c 0.554687 0 1.113281 0 1.671875 -0.003906 c 0.402344 0 0.800781 0 1.203125 0.003906 h 2.628906 c 1.300781 -0.003906 2.601563 0 3.90625 0 h 6.972657 h 6.105468 h 0.410156 h 1.640626 h 15.410156 c 4.566406 -0.003906 9.132812 -0.003906 13.699218 0 h 15.378907 h 1.640625 h 0.40625 h 6.101562 h 6.933594 h 3.886719 h 2.589843 c 0.496094 -0.003906 0.988282 -0.003906 1.480469 0 c 0.53125 0 1.058594 0 1.589844 -0.003906 c 0.15625 0 0.308594 0.003906 0.46875 0.003906 c 0.140625 0 0.28125 -0.003906 0.425781 -0.003906 h 0.367188 c 0.371094 -0.039063 0.601562 -0.125 0.914062 -0.328125 c 0.261719 -0.445313 0.261719 -0.445313 0.441406 -0.878907 c 0.597657 0.515626 0.820313 0.980469 0.917969 1.765626 c 0.054688 1.078124 -0.285156 1.914062 -0.957031 2.75 c -1.035156 0.824218 -1.90625 0.992187 -3.214844 0.980468 c -0.164062 0 -0.328125 0 -0.496094 0.003906 c -0.550781 0 -1.097656 0 -1.644531 -0.003906 c -0.398437 0 -0.796875 0.003906 -1.191406 0.003906 c -0.863281 0.003907 -1.726563 0.003907 -2.589844 0 c -1.285156 0 -2.566406 0 -3.851562 0.003907 c -2.292969 0.003906 -4.585938 0.003906 -6.878907 0 c -2.003906 0 -4.011718 0 -6.019531 0 c -0.269531 0 -0.535156 0 -0.804687 0.003906 c -0.40625 0 -0.8125 0 -1.21875 0 c -3.769532 0 -7.539063 0 -11.308594 0 c -0.140625 0 -0.28125 0 -0.429688 0 c -1.152343 0 -2.308593 0 -3.460937 -0.003906 c -4.503906 0 -9.007813 0 -13.507813 0.003906 c -5.058593 0.003906 -10.117187 0.007813 -15.175781 0.007813 c -0.539062 0 -1.078125 0 -1.617187 0 c -0.132813 0 -0.261719 0 -0.398438 -0.003907 c -2.007812 0 -4.011718 0.003907 -6.019531 0.003907 c -2.277344 0.003906 -4.558594 0.003906 -6.835937 0 c -1.277344 0 -2.554688 0 -3.832032 0 c -0.851562 0.003906 -1.703125 0.003906 -2.554687 0 c -0.484375 0 -0.972657 0 -1.457031 0 c -0.523438 0.003906 -1.046876 0 -1.570313 -0.003907 c -0.152344 0.003907 -0.300781 0.003907 -0.457031 0.007813 c -1.082032 -0.015625 -1.808594 -0.285156 -2.582032 -1.054688 c -0.792968 -0.90625 -0.871093 -1.59375 -0.859374 -2.78125 c 0.078124 -0.691406 0.3125 -1.179687 0.789062 -1.683594 z m 0 0" fill="#522e19"/>
    <path d="m 36.878906 8.289062 h 0.289063 c 0.324219 -0.003906 0.648437 0 0.972656 0 c 0.234375 -0.003906 0.46875 -0.003906 0.699219 -0.003906 c 0.644531 -0.003906 1.289062 -0.003906 1.933594 -0.003906 c 0.691406 0 1.386718 -0.003906 2.078124 -0.003906 c 1.519532 -0.003906 3.035157 -0.007813 4.554688 -0.007813 c 0.945312 0 1.894531 0 2.839844 -0.003906 c 2.621094 -0.003906 5.242187 -0.003906 7.863281 -0.007813 h 0.507813 h 0.511718 h 1.023438 h 0.511718 c 2.742188 0 5.480469 -0.007812 8.222657 -0.011718 c 2.8125 -0.007813 5.625 -0.011719 8.4375 -0.011719 c 1.578125 0 3.160156 -0.003906 4.738281 -0.007813 c 1.34375 -0.003906 2.691406 -0.003906 4.035156 -0.003906 c 0.6875 0 1.371094 0 2.058594 -0.003906 c 0.628906 -0.003906 1.257812 -0.003906 1.886719 0 c 0.226562 0.003906 0.453125 0 0.679687 0 c 1.910156 -0.023438 1.910156 -0.023438 2.585938 0.539062 c 0.445312 0.46875 0.542968 0.789063 0.550781 1.433594 c 0 0.144532 0 0.292969 0.003906 0.441406 v 0.488282 c 0.003907 0.167968 0.003907 0.335937 0.003907 0.507812 c 0.007812 0.5625 0.007812 1.121094 0.011718 1.679688 c 0 0.191406 0.003906 0.382812 0.003906 0.578125 c 0.003907 0.804687 0.007813 1.605469 0.007813 2.40625 c 0.003906 1.152343 0.011719 2.300781 0.019531 3.449219 c 0.007813 0.808593 0.011719 1.617187 0.011719 2.421874 c 0 0.484376 0.003906 0.964844 0.007813 1.449219 c 0.007812 0.539063 0.007812 1.078125 0.007812 1.617188 c 0 0.160156 0.003906 0.316406 0.007812 0.480469 c 0 0.148437 -0.003906 0.296874 -0.003906 0.449218 v 0.382813 c -0.175781 0.648437 -0.414062 1.0625 -0.988281 1.425781 c -0.753906 0.15625 -1.503906 0.136719 -2.269531 0.128906 c -0.234375 0 -0.472656 0 -0.707032 0.003906 c -0.648437 0.003907 -1.296874 0 -1.945312 -0.003906 c -0.699219 -0.003906 -1.398438 0 -2.097656 0.003906 c -1.371094 0.003907 -2.738282 0 -4.109375 -0.003906 c -1.59375 -0.003906 -3.1875 -0.003906 -4.785157 -0.003906 c -2.84375 0.003906 -5.6875 0 -8.53125 -0.007812 c -2.761718 -0.007813 -5.523437 -0.007813 -8.285156 -0.003907 c -3.003906 0 -6.011718 0 -9.015625 -0.003906 c -0.320312 0 -0.640625 0 -0.960937 0 c -0.160156 0 -0.316406 0 -0.480469 0 c -1.109375 -0.003906 -2.222656 0 -3.335937 0 c -1.351563 0 -2.707032 0 -4.0625 -0.007813 c -0.691407 0 -1.382813 -0.003906 -2.074219 0 c -0.632813 0 -1.265625 0 -1.898438 -0.003906 c -0.230469 -0.003906 -0.457031 -0.003906 -0.6875 0 c -0.3125 0 -0.621093 0 -0.933593 -0.003906 c -0.257813 0 -0.257813 0 -0.523438 0 c -0.589844 -0.121094 -0.808594 -0.367188 -1.1875 -0.828125 c -0.179688 -0.355469 -0.167969 -0.589844 -0.167969 -0.988281 c -0.003906 -0.148438 -0.003906 -0.296875 -0.003906 -0.449219 c 0 -0.160156 0 -0.324219 0 -0.492187 c -0.003906 -0.253907 -0.003906 -0.253907 -0.003906 -0.515626 c -0.003907 -0.566406 -0.003907 -1.128906 -0.007813 -1.695312 c 0 -0.195312 0 -0.386719 0 -0.585938 c -0.003906 -0.914062 -0.003906 -1.832031 -0.007812 -2.746093 c 0 -1.054688 -0.003906 -2.113281 -0.011719 -3.167969 c -0.003906 -0.816406 -0.003906 -1.632812 -0.003906 -2.449219 c -0.003907 -0.488281 -0.003907 -0.976562 -0.007813 -1.464843 c -0.003906 -0.542969 -0.003906 -1.085938 0 -1.632813 c -0.003906 -0.242187 -0.003906 -0.242187 -0.007812 -0.488281 c 0.007812 -1.089844 0.007812 -1.089844 0.34375 -1.65625 c 0.59375 -0.523438 0.914062 -0.609375 1.695312 -0.613282 z m 0.820313 3.117188 c -0.015625 0.421875 -0.019531 0.839844 -0.019531 1.265625 c 0 0.128906 -0.003907 0.261719 -0.003907 0.398437 v 1.320313 c 0 0.304687 0 0.609375 -0.003906 0.914063 v 1.921874 c 0 0.820313 0 1.640626 -0.003906 2.460938 v 1.890625 c 0 0.300781 -0.003907 0.605469 -0.003907 0.910156 v 1.265625 c 0 0.128906 0 0.253906 -0.003906 0.382813 c -0.023437 0.667969 -0.023437 0.667969 0.332032 1.195312 c 0.394531 0.042969 0.394531 0.042969 0.859374 0.035157 c 0.183594 0 0.367188 0 0.558594 0.003906 c 0.207032 -0.003906 0.414063 -0.003906 0.621094 -0.003906 h 0.652344 c 0.597656 0.003906 1.199218 0.003906 1.800781 0 c 0.644531 0 1.292969 0 1.9375 0.003906 h 3.804687 h 3.089844 h 0.441406 h 0.890626 c 2.792968 0 5.582031 0 8.371093 -0.003906 h 7.1875 c 2.78125 0.003906 5.558594 0.003906 8.339844 0.003906 h 0.886719 h 0.441406 h 3.085938 h 3.761718 c 0.640625 -0.003906 1.28125 -0.003906 1.921875 0 c 0.582031 0 1.167969 0 1.753907 -0.003906 h 0.636718 c 0.289063 0.003906 0.574219 0 0.863282 0 h 0.484374 c 0.398438 0 0.398438 0 0.667969 -0.328126 c 0.027344 -0.429687 0.039063 -0.839843 0.035157 -1.269531 c 0 -0.128906 0.003906 -0.261719 0.003906 -0.394531 c 0 -0.4375 0 -0.871094 0 -1.304688 c 0 -0.300781 0 -0.601562 0 -0.90625 c 0 -0.628906 0 -1.261718 -0.003906 -1.894531 c 0 -0.808593 0 -1.621093 0.003906 -2.433593 c 0 -0.621094 0 -1.242188 0 -1.867188 c 0 -0.296875 0 -0.597656 0 -0.894531 c 0 -0.417969 0 -0.835938 -0.003906 -1.253907 c 0.003906 -0.1875 0.003906 -0.1875 0.003906 -0.378906 c 0.023437 -0.660156 0.023437 -0.660156 -0.332032 -1.179687 c -0.394531 -0.046875 -0.394531 -0.046875 -0.863281 -0.039063 c -0.183593 0 -0.371093 0 -0.558593 0 c -0.207032 0 -0.414063 0 -0.621094 0 c -0.21875 0 -0.4375 0 -0.65625 0 c -0.601563 0 -1.203125 0 -1.808594 0 c -0.648438 0.003906 -1.296875 0 -1.945312 0 c -1.269532 0 -2.542969 0 -3.816407 0.003906 c -1.476562 0 -2.957031 0 -4.4375 0 c -2.636719 0 -5.277343 0 -7.914062 0.003907 c -2.5625 0 -5.125 0.003906 -7.691407 0.003906 c -0.234374 0 -0.234374 0 -0.476562 0 c -0.15625 0 -0.316406 0 -0.476562 0 c -2.914063 0 -5.828126 0 -8.742188 0 c -1.035156 0 -2.066406 0 -3.097656 0 c -1.257813 0 -2.515625 0.003906 -3.773438 0.003906 c -0.640625 0 -1.28125 0 -1.925781 0 c -0.585937 0 -1.171875 0 -1.761719 0 c -0.210937 0.003907 -0.425781 0.003907 -0.636718 0.003907 c -0.289063 -0.003907 -0.578126 0 -0.863282 0 c -0.160156 0 -0.324218 0 -0.488281 0 c -0.347656 -0.023438 -0.347656 -0.023438 -0.503906 0.164062 z m 0 0" fill="#5f361d"/>
    <path d="m 30.300781 74.335938 c 0.234375 0 0.234375 0 0.472657 -0.003907 c 0.527343 0 1.054687 0 1.582031 0.003907 c 0.375 -0.003907 0.753906 -0.003907 1.128906 -0.003907 c 0.917969 -0.003906 1.835937 -0.003906 2.753906 0 h 2.238281 h 0.324219 h 0.648438 c 2.023437 -0.003906 4.046875 0 6.070312 0.003907 c 1.734375 0.003906 3.472657 0 5.207031 0 c 2.015626 -0.003907 4.03125 -0.007813 6.050782 -0.003907 h 0.644531 h 0.320313 c 0.746093 0 1.488281 0 2.234374 -0.003906 c 1.003907 0 2.007813 0 3.011719 0.003906 c 0.367188 0.003907 0.734375 0.003907 1.105469 0 c 0.5 0 1.003906 0 1.507812 0.003907 c 0.144532 0 0.292969 -0.003907 0.441407 -0.003907 c 0.628906 0.007813 1.125 0.027344 1.648437 0.402344 c 0.433594 0.535156 0.457032 0.800781 0.457032 1.484375 c 0 0.105469 0 0.210938 0.003906 0.320312 c 0 0.347657 -0.003906 0.699219 -0.007813 1.050782 c 0 0.25 0.003907 0.5 0.003907 0.753906 c 0 0.683594 0 1.367188 -0.007813 2.046875 c -0.003906 0.714844 0 1.429687 0 2.144531 c 0 1.199219 -0.003906 2.402344 -0.011719 3.601563 c -0.007812 1.386719 -0.007812 2.773437 -0.007812 4.160156 c 0 1.335937 -0.003906 2.671875 -0.007813 4.003906 v 1.707031 c 0 0.667969 -0.003906 1.335938 -0.007812 2.003907 c -0.003907 0.246093 -0.003907 0.492187 -0.003907 0.738281 c 0 0.335938 0 0.667969 -0.003906 1.003906 c 0 0.1875 0 0.375 -0.003906 0.570313 c -0.058594 0.53125 -0.164062 0.800781 -0.496094 1.21875 c -0.429687 0.265625 -0.75 0.332031 -1.25 0.332031 c -0.132812 0 -0.265625 0 -0.40625 0.003906 c -0.144531 0 -0.289062 0 -0.441406 -0.003906 c -0.234375 0.003906 -0.234375 0.003906 -0.472656 0.003906 c -0.519532 0 -1.042969 0 -1.566406 0 c -0.375 0 -0.75 0.003906 -1.125 0.003906 c -0.910157 0.003907 -1.824219 0.003907 -2.734376 0.003907 c -0.742187 0 -1.484374 0 -2.226562 0 c -2.101562 0.003906 -4.203125 0.003906 -6.304688 0.003906 c -0.167968 0 -0.167968 0 -0.34375 0 c -0.167968 0 -0.167968 0 -0.34375 0 c -1.839843 0 -3.675781 0.003906 -5.515624 0.007813 c -1.886719 0.003906 -3.777344 0.007812 -5.664063 0.007812 c -1.058594 0 -2.121094 0 -3.179687 0.003906 c -0.996094 0 -1.992188 0 -2.992188 0 c -0.363281 0 -0.730469 0 -1.097656 0 c -0.5 0.003906 -0.996094 0 -1.496094 0 c -0.148438 0 -0.292969 0.003906 -0.441406 0.003906 c -0.636719 -0.007812 -0.992188 -0.015624 -1.542969 -0.355468 c -0.488281 -0.535156 -0.445313 -0.894532 -0.449219 -1.609375 c 0 -0.105469 0 -0.210938 -0.003906 -0.320313 c 0 -0.351562 0 -0.707031 0 -1.058594 c -0.003906 -0.253906 -0.003906 -0.507812 -0.003906 -0.761718 c -0.003906 -0.832032 -0.007813 -1.664063 -0.007813 -2.496094 c -0.003906 -0.285156 -0.003906 -0.574219 -0.003906 -0.859375 c -0.003906 -1.191406 -0.007813 -2.378906 -0.007813 -3.570313 c -0.003906 -1.707031 -0.007812 -3.417968 -0.015624 -5.125 c -0.003907 -1.199218 -0.007813 -2.398437 -0.007813 -3.597656 c -0.003906 -0.71875 -0.003906 -1.433594 -0.007813 -2.152344 c -0.003906 -0.675781 -0.007812 -1.347656 -0.003906 -2.023437 c 0 -0.246094 0 -0.496094 -0.003906 -0.742187 c -0.003906 -0.339844 -0.003906 -0.675782 0 -1.015626 c 0 -0.28125 0 -0.28125 0 -0.570312 c 0.089844 -0.492188 0.089844 -0.492188 0.363281 -0.921875 c 0.664063 -0.441406 1.21875 -0.40625 2 -0.398437 z m 0.65625 2.730468 v 22.132813 h 34.296875 c 0.003906 -3.625 0.007813 -7.25 0.007813 -10.984375 c 0.003906 -1.144532 0.003906 -2.292969 0.003906 -3.472656 c 0.003906 -1.023438 0.003906 -1.023438 0.003906 -2.046876 c 0 -0.457031 0 -0.914062 0 -1.371093 c 0 -0.585938 0 -1.167969 0 -1.75 c 0 -0.214844 0 -0.429688 0 -0.644531 c 0.003907 -0.285157 0.003907 -0.574219 0.003907 -0.863282 c 0 -0.160156 0 -0.324218 0 -0.492187 c 0.019531 -0.351563 0.019531 -0.351563 -0.164063 -0.507813 c -0.441406 -0.011718 -0.875 -0.019531 -1.316406 -0.015625 c -0.140625 0 -0.277344 0 -0.421875 0 c -0.472656 0 -0.945313 0 -1.414063 0 c -0.335937 0 -0.675781 0 -1.011719 0 c -0.914062 0 -1.832031 0 -2.75 0.003907 c -0.957031 0 -1.914062 0 -2.867187 0 c -1.609375 0 -3.214844 0 -4.820313 0.003906 c -1.65625 0 -3.3125 0 -4.96875 0 c -0.101562 0 -0.207031 0 -0.3125 0 c -0.894531 0 -1.789062 0 -2.6875 0.003906 c -3.859374 0 -7.71875 0.003906 -11.582031 0.003906 z m 0 0" fill="#452b1d"/>
    <path d="m 114.207031 46.730469 h 0.292969 c 0.292969 1.023437 0.292969 1.023437 0.292969 3.371093 c -33.277344 0 -66.550781 0 -100.835938 0 v 7.472657 c -0.050781 0 -0.097656 0 -0.148437 0 c -0.007813 -1.179688 -0.011719 -2.363281 -0.015625 -3.542969 c 0 -0.546875 -0.003907 -1.097656 -0.003907 -1.644531 c -0.003906 -0.53125 -0.007812 -1.0625 -0.007812 -1.59375 c 0 -0.199219 0 -0.402344 -0.003906 -0.601563 c 0 -0.285156 0 -0.570312 0 -0.851562 c 0 -0.164063 -0.003906 -0.324219 -0.003906 -0.488282 c 0.035156 -0.511718 0.035156 -0.511718 0.328124 -1.828124 c 49.625 0.070312 49.625 0.070312 100.25 0.144531 c -0.046874 -0.144531 -0.09375 -0.289063 -0.144531 -0.4375 z m 0 0" fill="#a13413"/>
    <path d="m 21.722656 104.183594 h 52.617188 v 5.273437 c -17.363282 0 -34.726563 0 -52.617188 0 c 0 -1.738281 0 -3.480469 0 -5.273437 z m 0 0" fill="#f3a764"/>
    <path d="m 76.226562 74.648438 h 0.300782 c 0.332031 -0.003907 0.664062 0 0.996094 0 h 0.71875 c 0.648437 -0.003907 1.292968 -0.003907 1.941406 0 c 0.675781 0.003906 1.355468 0 2.03125 0 c 1.140625 0 2.277344 0.003906 3.414062 0.007812 c 1.316406 0.003906 2.632813 0.003906 3.949219 0 c 1.265625 0 2.53125 0 3.796875 0.003906 h 1.613281 c 0.636719 -0.003906 1.269531 0 1.902344 0.003906 h 0.699219 c 0.316406 -0.003906 0.636718 0 0.953125 0.003907 h 0.539062 c 0.65625 0.078125 1.03125 0.328125 1.492188 0.789062 c 0.03125 0.449219 0.039062 0.886719 0.039062 1.335938 v 0.425781 c 0 0.472656 -0.003906 0.945312 -0.003906 1.417969 v 1.015625 c 0 0.917968 0 1.839844 -0.003906 2.757812 c 0 0.960938 0 1.921875 -0.003907 2.882813 c 0 1.613281 0 3.226562 -0.003906 4.835937 c -0.003906 1.664063 -0.003906 3.324219 -0.003906 4.984375 v 0.316407 c -0.003906 0.898437 -0.003906 1.796874 -0.003906 2.695312 c -0.003906 3.875 -0.007813 7.75 -0.015625 11.625 c -8.605469 0 -17.214844 0 -26.085938 0 c -0.03125 -8.613281 -0.03125 -8.613281 -0.035156 -12.214844 c -0.003906 -0.820312 -0.003906 -1.644531 -0.003906 -2.464844 c -0.003907 -0.105468 -0.003907 -0.207031 -0.003907 -0.3125 c 0 -1.667968 -0.007812 -3.332031 -0.015624 -5 c -0.003907 -1.707031 -0.007813 -3.417968 -0.011719 -5.128906 c 0 -0.957031 -0.003907 -1.917968 -0.007813 -2.878906 c -0.003906 -0.902344 -0.007812 -1.804688 -0.003906 -2.710938 c 0 -0.332031 -0.003906 -0.664062 -0.007812 -0.996093 c 0 -0.453125 0 -0.902344 0 -1.355469 c 0 -0.132812 -0.003907 -0.265625 -0.003907 -0.402344 c 0.003907 -0.597656 0.011719 -0.878906 0.402344 -1.351562 c 0.511719 -0.253906 0.859375 -0.285156 1.429687 -0.285156 z m 0.898438 2.859374 v 30.925782 h 20.667969 c 0 -10.207032 0 -20.410156 0 -30.925782 c -6.820313 0 -13.640625 0 -20.667969 0 z m 0 0" fill="#3a2317"/>
    <path d="m 13.957031 50.101562 h 100.835938 v 2.636719 c -33.277344 0 -66.550781 0 -100.835938 0 c 0 -0.871093 0 -1.742187 0 -2.636719 z m 0 0" fill="#fce6cb"/>
    <path d="m 94.566406 64.023438 c 0.425782 0.414062 0.824219 0.835937 1.210938 1.292968 c 1.019531 1.164063 2.089844 1.980469 3.480468 2.664063 c 0.101563 0.054687 0.207032 0.113281 0.3125 0.167969 c 1.824219 0.921874 3.988282 0.96875 5.988282 0.859374 c 0.21875 -0.074218 0.21875 -0.074218 0.441406 -0.148437 h 1.023438 v 2.785156 c -1.320313 0.164063 -1.320313 0.164063 -1.878907 0.167969 c -0.125 0 -0.246093 0 -0.371093 0 s -0.25 -0.003906 -0.378907 -0.003906 c -0.183593 0.003906 -0.183593 0.003906 -0.371093 0.003906 c -3.097657 -0.003906 -5.71875 -1.117188 -7.992188 -3.246094 c -1.171875 -1.300781 -1.171875 -1.300781 -1.171875 -1.757812 c -0.097656 0 -0.191406 0 -0.292969 0 c -0.035156 0.082031 -0.074218 0.164062 -0.113281 0.25 c -1.148437 2.132812 -3.667969 3.550781 -5.894531 4.292968 c -3.128906 0.902344 -6.75 0.703126 -9.675782 -0.734374 c -0.117187 -0.054688 -0.234374 -0.113282 -0.351562 -0.171876 c -1.46875 -0.769531 -2.605469 -1.867187 -3.75 -3.050781 c -0.148438 -0.148437 -0.292969 -0.292969 -0.441406 -0.441406 c -0.101563 0.140625 -0.101563 0.140625 -0.210938 0.28125 c -1.914062 2.476563 -4.472656 3.984375 -7.574218 4.503906 c -2.191407 0.277344 -4.5 0.265625 -6.578126 -0.53125 c -0.121093 -0.046875 -0.242187 -0.09375 -0.367187 -0.140625 c -0.324219 -0.136718 -0.636719 -0.285156 -0.949219 -0.449218 c -0.125 -0.054688 -0.25 -0.113282 -0.378906 -0.175782 c -1.558594 -0.773437 -2.792969 -1.988281 -3.875 -3.339844 c -0.472656 0.203126 -0.730469 0.425782 -1.050781 0.824219 c -1.644531 1.921875 -3.539063 2.996094 -5.984375 3.574219 c -0.257813 0.078125 -0.257813 0.078125 -0.523438 0.15625 c -2.863281 0.710938 -6.3125 0.183594 -8.886718 -1.222656 c -1.414063 -0.882813 -2.832032 -1.9375 -3.777344 -3.332032 c 0 -0.097656 0 -0.195312 0 -0.292968 c -0.097656 0 -0.195313 0 -0.292969 0 c -0.042969 0.144531 -0.042969 0.144531 -0.082031 0.292968 c -0.984375 2.050782 -3.519532 3.484376 -5.582032 4.222657 c -1.382812 0.394531 -2.714843 0.511719 -4.148437 0.496093 c -0.164063 0 -0.324219 0 -0.492187 0 c -0.660157 -0.003906 -1.21875 -0.015624 -1.863282 -0.175781 c 0 -0.917969 0 -1.835937 0 -2.785156 c 0.199219 0.023437 0.394532 0.050781 0.597656 0.074219 c 3.425782 0.332031 6.785157 -0.207032 9.515626 -2.417969 c 0.789062 -0.707031 1.519531 -1.425781 2.054687 -2.34375 c 0.496094 0.164063 0.542969 0.25 0.824219 0.667969 c 1.640625 2.25 4.289062 3.546875 6.988281 3.992187 c 3.453125 0.507813 6.902344 -0.054687 9.835937 -2.035156 c 1.027344 -0.769531 1.855469 -1.570313 2.574219 -2.625 h 0.292969 c 0.203125 0.242187 0.203125 0.242187 0.441406 0.574219 c 1.742188 2.285156 4.34375 3.695312 7.164063 4.160156 c 3.683593 0.425781 7.3125 -0.199219 10.277343 -2.539062 c 0.574219 -0.5 1.09375 -1.050782 1.613282 -1.609376 c 0.195312 -0.199218 0.386718 -0.394531 0.585937 -0.585937 c 0.113281 0.132813 0.230469 0.265625 0.347657 0.402344 c 2.359374 2.660156 5.285156 4.265625 8.875 4.488281 c 3.246093 0.117188 6.511718 -0.726562 8.988281 -2.90625 c 0.703125 -0.65625 1.332031 -1.332031 1.867187 -2.132812 z m 0 0" fill="#d0a86d"/>
    <path d="m 14.835938 110.632812 h 98.929687 c -0.144531 0.878907 -0.144531 0.878907 -0.421875 1.148438 c -0.6875 0.253906 -1.335938 0.230469 -2.0625 0.226562 c -0.25 0 -0.25 0 -0.5 0 c -0.558594 0.003907 -1.113281 0 -1.671875 0 c -0.402344 0 -0.800781 0 -1.203125 0 c -0.875 0.003907 -1.75 0.003907 -2.625 0.003907 c -1.300781 -0.003907 -2.605469 0 -3.90625 0 c -2.324219 0.003906 -4.644531 0.003906 -6.96875 0.003906 c -2.035156 0 -4.066406 0 -6.101562 0 c -0.273438 0 -0.546876 0 -0.816407 0 c -0.410156 0 -0.824219 0 -1.234375 0 c -3.816406 0 -7.636718 0.003906 -11.453125 0 c -0.21875 0 -0.21875 0 -0.4375 0 c -1.171875 0 -2.339843 0 -3.511719 0 c -4.5625 0 -9.125 0 -13.6875 0.003906 c -5.125 0.003907 -10.25 0.003907 -15.375 0.003907 c -0.546874 0 -1.089843 0 -1.636718 0 c -0.136719 0 -0.269532 0 -0.40625 0 c -2.035156 0 -4.066406 0 -6.097656 0.003906 c -2.3125 0 -4.621094 0 -6.933594 0 c -1.292969 -0.003906 -2.585938 -0.003906 -3.882813 0 c -0.863281 0 -1.726562 0 -2.589843 -0.003906 c -0.492188 0 -0.984376 0 -1.476563 0.003906 c -0.53125 0 -1.058594 0 -1.589844 -0.003906 c -0.152343 0 -0.308593 0.003906 -0.464843 0.003906 c -0.640626 -0.003906 -1.042969 -0.023438 -1.609376 -0.328125 c -0.265624 -0.335938 -0.265624 -0.335938 -0.265624 -1.066407 z m 0 0" fill="#b77347"/>
    <path d="m 107.023438 68.714844 h 0.148437 v 40.742187 h 5.128906 c 1.171875 0.589844 1.171875 0.589844 1.613281 1.027344 c -0.046874 0.320313 -0.046874 0.320313 -0.148437 0.585937 c -0.046875 -0.097656 -0.09375 -0.191406 -0.144531 -0.292968 c -48.898438 -0.070313 -48.898438 -0.070313 -98.785156 -0.144532 c 0.179687 -0.539062 0.414062 -0.632812 0.894531 -0.902343 c 1.730469 -0.792969 4.46875 -0.273438 5.847656 -0.273438 c 0 -12.476562 0 -24.957031 0 -37.8125 h 0.144531 v 37.8125 h 52.617188 c 0 -11.171875 0 -22.34375 0 -33.855469 h 0.148437 v 34.148438 h 26.085938 c 0 -11.265625 0 -22.535156 0 -34.148438 h 0.148437 v 33.855469 h 6.300782 c 0 -13.445312 0 -26.890625 0 -40.742187 z m 0 0" fill="#98592e"/>
    <path d="m 60.082031 32.945312 c 4.710938 -0.011718 9.425781 -0.019531 14.136719 -0.027343 h 0.320312 h 1.269532 c 1.488281 0 2.972656 -0.003907 4.457031 -0.007813 c 1.9375 -0.003906 3.875 -0.007812 5.8125 -0.007812 h 2.84375 c 0.878906 -0.003906 1.753906 -0.003906 2.632813 -0.003906 h 0.957031 c 0.433593 -0.003907 0.871093 -0.003907 1.304687 0 c 0.1875 -0.003907 0.1875 -0.003907 0.382813 -0.003907 c 0.679687 0.003907 1.132812 0.054688 1.6875 0.496094 v 0.148437 c -0.277344 0.003907 -0.277344 0.003907 -0.558594 0.007813 c -1.765625 0.035156 -3.535156 0.066406 -5.304687 0.097656 c -0.90625 0.015625 -1.816407 0.035157 -2.722657 0.050781 c -0.882812 0.015626 -1.769531 0.03125 -2.652343 0.046876 c -0.328126 0.007812 -0.660157 0.011718 -0.988282 0.019531 c -0.480468 0.007812 -0.957031 0.015625 -1.433594 0.027343 c -0.167968 0 -0.335937 0.003907 -0.511718 0.007813 c -1.007813 0.019531 -2.019532 0.039063 -3.027344 0.058594 c -4.394531 0.09375 -8.785156 0.15625 -13.179688 0.191406 c -0.839843 0.007813 -1.683593 0.015625 -2.523437 0.023437 c -2.484375 0.019532 -4.964844 0.042969 -7.449219 0.0625 c -1.945312 0.015626 -3.890625 0.035157 -5.835937 0.050782 c -0.832031 0.007812 -1.664063 0.015625 -2.496094 0.023437 c -0.238281 0 -0.238281 0 -0.480469 0.003907 c -0.3125 0 -0.625 0.003906 -0.9375 0.007812 c -0.742187 0.003906 -1.480468 0.011719 -2.222656 0.023438 c -0.277344 0.007812 -0.550781 0.011718 -0.828125 0.015624 c -0.132813 0.003907 -0.265625 0.003907 -0.398437 0.007813 c -0.792969 0.007813 -1.574219 -0.007813 -2.363282 -0.050781 c -1.5625 -0.0625 -2.746094 -0.058594 -3.984375 0.988281 c -0.476562 0.460937 -0.917969 0.949219 -1.347656 1.457031 c -0.351563 0.414063 -0.714844 0.8125 -1.085937 1.207032 c -1.050782 1.128906 -2.070313 2.28125 -3.085938 3.441406 c -4.609375 5.25 -4.609375 5.25 -7.128906 5.503906 c -1.484375 0.085938 -2.949219 -0.082031 -4.402344 -0.375 c 0 -0.097656 0 -0.195312 0 -0.292969 c 0.234375 -0.210937 0.472656 -0.40625 0.714844 -0.597656 c 0.5625 -0.449219 1.109375 -0.90625 1.640625 -1.390625 c 0.582031 -0.53125 1.179687 -1.023438 1.796875 -1.507812 c 0.445312 -0.355469 0.875 -0.726563 1.308594 -1.09375 c 0.667968 -0.570313 1.347656 -1.121094 2.042968 -1.660157 c 0.734375 -0.570312 1.433594 -1.167969 2.121094 -1.796875 c 0.453125 -0.40625 0.925781 -0.78125 1.402344 -1.15625 c 0.484375 -0.386718 0.953125 -0.789062 1.421875 -1.195312 c 0.871093 -0.75 1.75 -1.492188 2.648437 -2.207032 c 0.089844 -0.078124 0.179688 -0.15625 0.269532 -0.234374 c 0.378906 -0.246094 0.582031 -0.261719 1.027343 -0.265626 c 0.21875 0 0.21875 0 0.4375 -0.003906 h 0.484375 c 0.253906 -0.003906 0.253906 -0.003906 0.515625 -0.003906 c 0.476563 -0.003906 0.953125 -0.007812 1.429688 -0.007812 c 0.527343 0 1.050781 -0.003907 1.578125 -0.007813 c 1.054687 -0.007813 2.109375 -0.011719 3.164062 -0.015625 c 0.875 0 1.75 -0.003906 2.621094 -0.007812 c 3.640625 -0.019532 7.285156 -0.027344 10.925781 -0.035157 c 1.195313 -0.003906 2.394531 -0.007812 3.59375 -0.011719 z m 0 0" fill="#fa935e"/>
    <path d="m 19.085938 67.835938 c 0.878906 0.292968 1.757812 0.585937 2.636718 0.878906 c -0.046875 13.445312 -0.09375 26.890625 -0.144531 40.742187 c -0.824219 0 -1.644531 0 -2.492187 0 c 0 -13.734375 0 -27.46875 0 -41.621093 z m 0 0" fill="#4a2917"/>
    <path d="m 109.664062 67.6875 v 41.769531 c -0.824218 0 -1.644531 0 -2.492187 0 c 0 -13.445312 0 -26.890625 0 -40.742187 c 2.34375 -1.027344 2.34375 -1.027344 2.492187 -1.027344 z m 0 0" fill="#492815"/>
    <path d="m 36.894531 8.273438 c 0.097657 0 0.195313 -0.003907 0.292969 -0.003907 h 0.972656 h 0.699219 c 0.644531 -0.003906 1.289063 -0.003906 1.933594 -0.003906 c 0.691406 0 1.386719 0 2.078125 -0.003906 h 4.082031 c 1.101563 0 2.207031 -0.003907 3.3125 -0.003907 h 0.953125 h 0.480469 c 2.996093 -0.003906 5.988281 -0.003906 8.984375 -0.003906 c 2.738281 0.003906 5.480468 0 8.222656 -0.003906 c 2.8125 -0.007812 5.625 -0.007812 8.4375 -0.007812 c 1.578125 0 3.160156 0 4.738281 -0.003907 c 1.34375 -0.003906 2.691407 -0.003906 4.035157 0 c 0.6875 0 1.371093 0 2.058593 -0.003906 c 0.628907 0 1.257813 0 1.882813 0.003906 c 0.230468 0 0.457031 0 0.683594 -0.003906 c 1.914062 -0.015625 1.914062 -0.015625 2.5 0.449219 c 0.300781 0.378906 0.300781 0.378906 0.300781 0.671875 c -0.183594 0 -0.183594 0 -0.371094 0 c -7.199219 -0.003907 -14.398437 -0.007813 -21.601563 -0.007813 c -0.863281 0 -1.726562 0 -2.589843 0 c -0.171875 0 -0.34375 0 -0.523438 0 c -2.785156 0 -5.574219 -0.003906 -8.359375 -0.003906 c -2.859375 0 -5.71875 -0.003906 -8.578125 -0.003906 c -1.765625 0 -3.527343 0 -5.292969 0 c -1.210937 0 -2.417968 0 -3.628906 0 c -0.699218 0 -1.398437 0 -2.09375 -0.003906 c -0.640625 0 -1.277344 0 -1.917968 0 c -0.230469 0 -0.464844 0 -0.695313 0 c -0.3125 0 -0.628906 0 -0.941406 0 c -0.261719 0 -0.261719 0 -0.53125 0 c -0.464844 0.019531 -0.898438 0.078124 -1.355469 0.164062 c 0.328125 -1.011719 0.792969 -1.226562 1.832031 -1.226562 z m 0 0" fill="#a87458"/>
    <path d="m 100.722656 104.183594 h 6.300782 v 5.273437 c -2.078126 0 -4.15625 0 -6.300782 0 c 0 -1.738281 0 -3.480469 0 -5.273437 z m 0 0" fill="#f4aa68"/>
    <path d="m 67.890625 100.8125 h 0.148437 c 0.070313 0.910156 0.070313 0.910156 -0.199218 1.347656 c -0.605469 0.414063 -1.199219 0.34375 -1.917969 0.335938 c -0.234375 0.003906 -0.234375 0.003906 -0.476563 0.003906 c -0.527343 0 -1.058593 0 -1.585937 -0.003906 c -0.378906 0 -0.757813 0.003906 -1.136719 0.003906 c -0.921875 0 -1.84375 0 -2.769531 0 c -1.074219 -0.003906 -2.148437 -0.003906 -3.222656 -0.003906 c -1.917969 0 -3.832031 0 -5.75 -0.003906 c -1.863281 -0.003907 -3.722657 -0.003907 -5.582031 -0.003907 c -2.027344 0.003907 -4.050782 0.003907 -6.078126 0 c -0.214843 0 -0.429687 0 -0.648437 0 c -0.105469 0 -0.210937 0 -0.320313 0 c -0.75 0 -1.5 0 -2.246093 0 c -1.007813 0 -2.019531 0 -3.027344 -0.003906 c -0.371094 0 -0.738281 0 -1.109375 0 c -0.503906 0 -1.011719 0 -1.515625 -0.003906 c -0.222656 0 -0.222656 0 -0.445313 0.003906 c -1.292968 -0.011719 -1.292968 -0.011719 -1.835937 -0.5 c -0.117187 -0.539063 -0.117187 -0.539063 -0.144531 -1.027344 c 0.113281 0.121094 0.226562 0.238281 0.34375 0.363281 c 0.636718 0.527344 1.285156 0.472657 2.082031 0.460938 h 0.472656 c 0.523438 0.003906 1.046875 0 1.570313 -0.003906 h 1.121094 c 0.914062 0 1.824218 0 2.738281 -0.007813 c 1.058593 -0.003906 2.121093 -0.003906 3.183593 -0.003906 c 1.894532 0 3.789063 -0.003906 5.683594 -0.011719 c 1.835938 -0.003906 3.675782 -0.011718 5.511719 -0.011718 h 0.34375 h 1.367187 c 1.960938 -0.003907 3.925782 -0.007813 5.886719 -0.011719 h 0.957031 c 1.207032 -0.003907 2.410157 -0.003907 3.617188 -0.007813 c 0.367188 -0.003906 0.734375 -0.003906 1.101562 -0.003906 c 0.496094 0 0.996094 -0.003906 1.492188 -0.003906 h 0.445312 c 0.199219 -0.003906 0.199219 -0.003906 0.402344 -0.003906 h 0.347656 c 0.324219 -0.019532 0.597657 -0.054688 0.902344 -0.167969 c 0.191406 -0.363281 0.191406 -0.363281 0.292969 -0.730469 z m 0 0" fill="#dcbf85"/>
    <path d="m 85.773438 28.261719 h 3.222656 v 3.8125 h -3.222656 z m 0 0" fill="#783921"/>
    <path d="m 109.664062 67.6875 v 41.769531 c -0.050781 0 -0.097656 0 -0.148437 0 c 0 -12.816406 0 -25.632812 0 -38.839843 c -0.871094 0.363281 -0.871094 0.363281 -1.757813 0.734374 c -0.195312 0.046876 -0.386718 0.097657 -0.585937 0.148438 c 0 -0.921875 0 -1.839844 0 -2.785156 c 0.382813 -0.171875 0.765625 -0.339844 1.164063 -0.515625 c 0.121093 -0.050781 0.242187 -0.105469 0.367187 -0.160157 c 0.796875 -0.351562 0.796875 -0.351562 0.960937 -0.351562 z m 0 0" fill="#382013"/>
    <path d="m 19.085938 67.835938 c 0.835937 0.277343 1.664062 0.574218 2.492187 0.878906 v 2.785156 c -1.027344 -0.148438 -1.027344 -0.148438 -2.199219 -0.734375 c -0.046875 12.769531 -0.097656 25.539063 -0.144531 38.691406 c -0.050781 0 -0.097656 0 -0.148437 0 c 0 -13.734375 0 -27.46875 0 -41.621093 z m 0 0" fill="#3b2213"/>
    <path d="m 39.75 28.261719 h 3.226562 v 3.8125 c -1.066406 0 -2.128906 0 -3.226562 0 c 0 -1.257813 0 -2.515625 0 -3.8125 z m 0 0" fill="#7a3c25"/>
    <path d="m 79.175781 90.113281 h 1.761719 v 4.542969 c -0.582031 0 -1.160156 0 -1.761719 0 c 0 -1.5 0 -3 0 -4.542969 z m 0 0" fill="#d06d42"/>
</svg>
